<svg xmlns="http://www.w3.org/2000/svg" width="524" height="118" fill="none" xmlns:v="https://vecta.io/nano"><path d="M169.944 55V32.088H138.52V55h-3.072V9.24h3.072v20.096h31.424V9.24h3.072V55h-3.072zm32.806 0h-3.072V38.616L182.462 9.24h3.712l13.312 23.168 1.92 3.584c.17-.555.768-1.707 1.792-3.456L216.51 9.24h3.52l-17.28 29.504V55zm41.417-2.24c6.016 0 10.837-1.621 14.464-4.864 3.669-3.285 5.504-8.213 5.504-14.784s-2.07-11.797-6.208-15.68c-4.096-3.883-9.174-5.824-15.232-5.824-3.883 0-7.254.107-10.112.32v40.32c2.773.341 6.634.512 11.584.512zm-1.472-43.968c7.04 0 12.928 2.197 17.664 6.592 4.736 4.352 7.104 10.283 7.104 17.792 0 3.797-.619 7.168-1.856 10.112-1.195 2.901-2.859 5.227-4.992 6.976-4.395 3.541-9.878 5.312-16.448 5.312-4.31 0-9.195-.235-14.657-.704V9.24a192.55 192.55 0 0 1 13.185-.448zM281.698 55V9.432c4.053-.299 7.445-.448 10.176-.448 4.352 0 7.936 1.131 10.752 3.392 2.816 2.219 4.224 5.376 4.224 9.472 0 2.773-.811 5.355-2.432 7.744s-3.435 4.288-5.44 5.696l5.824 7.808 4.544 5.632c2.603 2.773 5.547 4.352 8.832 4.736l-.064 2.048c-2.603-.043-4.715-.427-6.336-1.152-1.621-.768-3.179-1.92-4.672-3.456-1.451-1.536-5.099-6.315-10.944-14.336-4.181 0-7.979-.128-11.392-.384V55h-3.072zm12.608-20.992c1.877 0 3.883-1.237 6.016-3.712s3.2-5.333 3.2-8.576c0-3.285-1.109-5.76-3.328-7.424-2.176-1.707-5.077-2.56-8.704-2.56-1.92 0-4.16.085-6.72.256v21.696c3.413.213 6.592.32 9.536.32zm33.165 14.912c-4.224-4.565-6.336-10.176-6.336-16.832s2.112-12.245 6.336-16.768c4.267-4.565 9.643-6.848 16.128-6.848s11.861 2.283 16.128 6.848c4.267 4.523 6.4 10.112 6.4 16.768s-2.133 12.267-6.4 16.832-9.643 6.848-16.128 6.848-11.861-2.283-16.128-6.848zm2.304-31.616c-3.541 3.968-5.312 8.896-5.312 14.784s1.771 10.837 5.312 14.848c3.584 4.011 8.192 6.016 13.824 6.016 5.675 0 10.283-2.005 13.824-6.016 3.584-4.011 5.376-8.96 5.376-14.848s-1.792-10.816-5.376-14.784c-3.541-4.011-8.149-6.016-13.824-6.016s-10.283 2.005-13.824 6.016z" fill="#fffcfc"/><path d="M169.944 55h-1v1h1v-1zm0-22.912h1v-1h-1v1zm-31.424 0v-1h-1v1h1zm0 22.912v1h1v-1h-1zm-3.072 0h-1v1h1v-1zm0-45.76v-1h-1v1h1zm3.072 0h1v-1h-1v1zm0 20.096h-1v1h1v-1zm31.424 0v1h1v-1h-1zm0-20.096v-1h-1v1h1zm3.072 0h1v-1h-1v1zm0 45.76v1h1v-1h-1zm-2.072 0V32.088h-2V55h2zm-1-23.912H138.52v2h31.424v-2zm-32.424 1V55h2V32.088h-2zm1 21.912h-3.072v2h3.072v-2zm-2.072 1V9.24h-2V55h2zm-1-44.76h3.072v-2h-3.072v2zm2.072-1v20.096h2V9.24h-2zm1 21.096h31.424v-2H138.52v2zm32.424-1V9.24h-2v20.096h2zm-1-19.096h3.072v-2h-3.072v2zm2.072-1V55h2V9.24h-2zm1 44.76h-3.072v2h3.072v-2zm29.734 1v1h1v-1h-1zm-3.072 0h-1v1h1v-1zm0-16.384h1v-.271l-.138-.234-.862.506zM182.462 9.24v-1h-1.746l.883 1.506.863-.506zm3.712 0l.867-.498-.289-.502h-.578v1zm13.312 23.168l.871-.49-.004-.008-.867.498zm1.92 3.584l-.895.447 1.116 2.232.734-2.386-.955-.294zm1.792-3.456l.863.505.005-.009-.868-.496zM216.51 9.24v-1h-.581l-.288.504.869.496zm3.52 0l.862.505.882-1.505h-1.744v1zm-17.28 29.504l-.863-.505-.137.234v.271h1zm0 15.256h-3.072v2h3.072v-2zm-2.072 1V38.616h-2V55h2zm-.138-16.89L183.324 8.734l-1.725 1.011 17.216 29.376 1.725-1.011zm-18.078-27.87h3.712v-2h-3.712v2zm2.844-.502l13.312 23.168 1.735-.996-13.312-23.168-1.735.996zm13.308 23.16l1.897 3.541 1.789-.894-1.943-3.627-1.743.981zm3.747 3.388c.13-.421.659-1.467 1.7-3.245l-1.727-1.01c-1.007 1.721-1.673 2.979-1.884 3.667l1.911.588zm1.705-3.254l13.312-23.296-1.737-.992-13.312 23.296 1.737.992zM216.51 10.24h3.52v-2h-3.52v2zm2.657-1.505l-17.28 29.504 1.725 1.011 17.28-29.504-1.725-1.011zM201.75 38.744V55h2V38.744h-2zm56.881 9.152l.666.745.001-.001-.667-.745zm-.704-30.464l-.688.726.003.003.685-.729zm-25.344-5.504l-.075-.997-.925.069v.928h1zm0 40.32h-1v.885l.877.108.123-.992zm27.776-36.864l-.681.733.004.003.677-.736zm5.248 27.904l-.922-.387-.003.007.925.381zm-4.992 6.976l.627.779.007-.005-.634-.773zm-31.105 4.608h-1v.918l.915.079.085-.996zm0-45.632l-.068-.998-.932.064v.934h1zm14.657 44.52c6.201 0 11.279-1.676 15.13-5.118l-1.333-1.491c-3.403 3.042-7.967 4.609-13.797 4.609v2zm15.131-5.119c3.945-3.533 5.837-8.774 5.837-15.529h-2c0 6.386-1.779 11.001-5.172 14.039l1.335 1.49zm5.837-15.529c0-6.799-2.152-12.307-6.524-16.409l-1.369 1.459c3.905 3.663 5.893 8.609 5.893 14.951h2zm-6.521-16.406c-4.296-4.072-9.626-6.098-15.919-6.098v2c5.823 0 10.648 1.857 14.544 5.55l1.375-1.452zm-15.919-6.098c-3.9 0-7.297.107-10.187.323l.149 1.994c2.827-.211 6.172-.317 10.038-.317v-2zm-11.112 1.32v40.32h2v-40.32h-2zm.877 41.313c2.834.349 6.742.52 11.707.52v-2c-4.935 0-8.749-.171-11.462-.505l-.245 1.985zm10.235-43.448c6.812 0 12.45 2.118 16.983 6.325l1.361-1.466c-4.939-4.582-11.077-6.859-18.344-6.859v2zm16.987 6.328c4.495 4.131 6.781 9.775 6.781 17.056h2c0-7.738-2.451-13.955-7.428-18.528l-1.353 1.473zm6.781 17.056c0 3.689-.601 6.924-1.778 9.724l1.843.775c1.298-3.088 1.935-6.594 1.935-10.499h-2zm-1.781 9.731c-1.141 2.77-2.713 4.953-4.702 6.583l1.269 1.547c2.277-1.868 4.033-4.336 5.282-7.369l-1.849-.761zm-4.695 6.578c-4.189 3.375-9.439 5.091-15.82 5.091v2c6.759 0 12.474-1.826 17.075-5.533l-1.255-1.557zm-15.82 5.091c-4.275 0-9.131-.233-14.571-.7l-.171 1.993c5.482.471 10.397.708 14.742.708v-2zm-13.657.296V9.24h-2v45.632h2zm-.931-44.634c4.329-.297 8.701-.446 13.116-.446v-2c-4.46 0-8.878.15-13.253.45l.137 1.995zM281.698 55h-1v1h1v-1zm0-45.568l-.073-.997-.927.068v.929h1zm20.928 2.944l-.626.78.007.006.619-.786zm1.792 17.216l-.827-.561h0l.827.561zm-5.44 5.696l-.575-.818-.831.584.597.822.809-.587zm5.824 7.808l-.796.605.005.006.005.006.786-.618zm4.544 5.632l-.747.664.009.01.009.01.729-.684zm8.832 4.736l1 .031.028-.918-.912-.107-.116.993zm-.064 2.048l-.016 1 .985.016.031-.985-1-.031zm-6.336-1.152l-.428.904.01.005.01.004.408-.913zm-4.672-3.456l-.727.687.005.005.005.005.717-.697zm-10.944-14.336l.808-.589-.299-.411h-.509v1zm-11.392-.384l.075-.997-1.075-.081v1.078h1zm0 18.816v1h1v-1h-1zm15.552-24.704l-.757-.653h0l.757.653zm-.128-16l-.617.787.008.007.009.007.6-.8zm-15.424-2.304l-.067-.998-.933.062v.936h1zm0 21.696h-1v.939l.938.059.062-.998zM282.698 55V9.432h-2V55h2zm-.927-44.571c4.04-.298 7.406-.445 10.103-.445v-2c-2.764 0-6.182.151-10.249.451l.146 1.995zm10.103-.445c4.173 0 7.522 1.081 10.126 3.172l1.252-1.559c-3.028-2.432-6.847-3.612-11.378-3.612v2zm10.133 3.178c2.539 2 3.843 4.848 3.843 8.686h2c0-4.353-1.512-7.821-4.605-10.257l-1.238 1.571zm3.843 8.686c0 2.565-.746 4.952-2.259 7.183l1.654 1.123c1.729-2.548 2.605-5.323 2.605-8.306h-2zm-2.259 7.183c-1.566 2.307-3.297 4.112-5.188 5.439l1.15 1.637c2.12-1.489 4.015-3.481 5.692-5.953l-1.654-1.123zm-5.422 6.845l5.837 7.826 1.592-1.211-5.811-7.79-1.618 1.174zm5.847 7.839l4.583 5.679 1.494-1.329c-.658-.741-2.152-2.591-4.505-5.585l-1.572 1.236zm4.601 5.699c2.738 2.918 5.891 4.63 9.445 5.045l.232-1.986c-3.016-.353-5.752-1.799-8.219-4.427l-1.458 1.369zm8.561 4.02l-.064 2.048 2 .062.064-2.048-2-.062zm.952 1.079c-2.525-.041-4.489-.414-5.944-1.065l-.816 1.826c1.788.8 4.047 1.195 6.728 1.239l.032-2zm-5.924-1.056c-1.495-.708-2.957-1.783-4.383-3.249l-1.434 1.394c1.561 1.605 3.213 2.835 4.961 3.663l.856-1.807zm-4.373-3.239c-1.396-1.478-4.999-6.192-10.863-14.238l-1.616 1.178c5.827 7.997 9.52 12.84 11.025 14.434l1.454-1.373zm-11.671-14.649c-4.162 0-7.933-.127-11.317-.381l-.15 1.994c3.443.258 7.266.387 11.467.387v-2zm-12.392.616V55h2V36.184h-2zm1 17.816h-3.072v2h3.072v-2zm9.536-18.992c2.324 0 4.584-1.519 6.773-4.059l-1.514-1.306c-2.077 2.409-3.829 3.365-5.259 3.365v2zm6.773-4.059c2.289-2.655 3.443-5.745 3.443-9.229h-2c0 3.001-.979 5.628-2.957 7.923l1.514 1.306zm3.443-9.229c0-3.534-1.209-6.335-3.728-8.224l-1.2 1.6c1.919 1.439 2.928 3.588 2.928 6.624h2zm-3.711-8.211c-2.4-1.883-5.541-2.773-9.321-2.773v2c3.473 0 6.135.816 8.087 2.347l1.234-1.574zm-9.321-2.773c-1.948 0-4.211.086-6.787.258l.134 1.996c2.544-.17 4.761-.254 6.653-.254v-2zm-7.72 1.256v21.696h2V11.992h-2zm.938 22.694c3.43.214 6.63.322 9.598.322v-2c-2.92 0-6.078-.106-9.474-.318l-.124 1.996zm42.763 14.234l-.734.679.003.004.731-.683zm0-33.6l-.731-.683h0l.731.683zm32.256 0l-.731.683.004.003.727-.686zm0 33.6l-.731-.683h0l.731.683zm-29.952-31.616l.746.666.004-.004-.75-.662zm0 29.632l-.75.662.004.004.746-.666zm27.648 0l-.746-.666-.004.004.75.662zm0-29.632l-.75.662.008.008.742-.67zm-29.218 30.937c-4.04-4.367-6.07-9.729-6.07-16.153h-2c0 6.889 2.194 12.747 6.602 17.511l1.468-1.358zm-6.07-16.153c0-6.424 2.03-11.763 6.067-16.085l-1.462-1.365c-4.411 4.723-6.605 10.562-6.605 17.451h2zm6.067-16.085c4.069-4.354 9.177-6.531 15.397-6.531v-2c-6.75 0-12.395 2.389-16.859 7.165l1.462 1.366zm15.397-6.531c6.22 0 11.328 2.176 15.397 6.531l1.462-1.366c-4.464-4.776-10.109-7.165-16.859-7.165v2zM359 16.006c4.078 4.323 6.127 9.661 6.127 16.082h2c0-6.891-2.218-12.732-6.673-17.454L359 16.006zm6.127 16.082c0 6.421-2.049 11.782-6.131 16.149l1.462 1.366c4.451-4.763 6.669-10.623 6.669-17.515h-2zm-6.131 16.149c-4.069 4.355-9.177 6.531-15.397 6.531v2c6.75 0 12.395-2.389 16.859-7.165l-1.462-1.366zm-15.397 6.531c-6.22 0-11.328-2.176-15.397-6.531l-1.462 1.366c4.464 4.776 10.109 7.165 16.859 7.165v-2zm-14.57-38.13c-3.723 4.171-5.566 9.345-5.566 15.45h2c0-5.671 1.698-10.353 5.058-14.118l-1.492-1.332zm-5.566 15.45c0 6.105 1.843 11.298 5.562 15.51l1.5-1.324c-3.364-3.809-5.062-8.515-5.062-14.186h-2zm5.566 15.514c3.784 4.234 8.668 6.35 14.57 6.35v-2c-5.362 0-9.694-1.895-13.078-5.682l-1.492 1.333zm14.57 6.35c5.942 0 10.83-2.114 14.574-6.354l-1.5-1.324c-3.338 3.781-7.666 5.678-13.074 5.678v2zm14.57-6.35c3.763-4.212 5.63-9.406 5.63-15.514h-2c0 5.667-1.717 10.372-5.122 14.182l1.492 1.333zm5.63-15.514c0-6.109-1.867-11.283-5.634-15.454l-1.484 1.341c3.401 3.765 5.118 8.446 5.118 14.114h2zm-5.626-15.446c-3.744-4.24-8.632-6.354-14.574-6.354v2c5.408 0 9.736 1.896 13.074 5.678l1.5-1.324zm-14.574-6.354c-5.942 0-10.83 2.114-14.574 6.354l1.5 1.324c3.338-3.781 7.666-5.678 13.074-5.678v-2z" fill="#fffefe"/><path d="M4.954 103.831l99.307-28.712c.681-.197 1.387-.289 2.094-.274l228.887 4.903a7 7 0 0 0 3.025-.616l102.404-46.121a7 7 0 0 1 7.788 1.396L513 98" stroke="#92cfe2" stroke-width="29"/></svg>